<svg width="226" height="81" viewBox="0 0 226 81" fill="none" xmlns="http://www.w3.org/2000/svg">
<path d="M82.4609 7.49768C75.4977 4.54615 63.2056 0.427721 47.5104 0.679403C33.248 0.908205 22.0307 4.66055 15.2913 7.49768C14.6644 13.5609 13.5002 38.9579 24.7623 57.4222C32.8002 70.6011 43.3682 77.5796 48.8761 80.6684C53.8467 77.9685 67.2582 69.7775 75.8783 52.6173C84.3641 35.7547 83.1774 13.2406 82.4609 7.49768ZM73.9528 51.7708C65.9596 67.6954 53.5108 75.2916 48.8985 77.7855C43.7936 74.9026 33.9869 68.4275 26.5311 56.2095C16.075 39.0723 17.1497 15.5057 17.7318 9.87722C24.001 7.22312 34.3899 3.74534 47.6447 3.53942C48.0701 3.53942 48.4731 3.53942 48.8985 3.53942C62.8698 3.53942 73.796 7.22312 80.0652 9.87722C80.7145 15.2083 81.8116 36.0979 73.9528 51.7708Z" fill="white"/>
<path d="M21.6051 56.4841C21.2469 56.2324 20.9782 55.9578 20.7991 55.546C20.4856 54.8596 19.7467 54.4935 19.0303 54.6079C18.2018 54.7452 17.9108 55.2943 18.3138 56.0493C18.4705 56.3468 18.4481 56.5298 18.1795 56.7129C18.0003 56.8501 17.8436 57.0332 17.7317 57.2162C17.4182 57.6967 17.5301 58.1543 18.0451 58.4289C18.2466 58.5433 18.4705 58.6348 18.6944 58.6348C19.9483 58.589 20.5528 59.5042 21.1573 60.3737C21.4484 60.8084 21.6499 61.2889 21.6275 61.838C21.6051 62.6846 21.1349 63.0736 20.3289 62.9363C19.7691 62.8447 19.2989 62.5931 18.8288 62.2728C17.5301 61.3804 16.7913 60.0305 16.1644 58.6348C15.739 57.6967 15.5151 56.7129 15.6718 55.6604C15.739 55.157 15.9405 54.7681 16.3883 54.4935C16.948 54.1503 17.463 53.7842 17.866 53.258C17.9556 53.1436 18.0451 53.0521 18.1571 53.2351C18.5153 53.7156 18.8288 53.5097 19.0974 53.1436C19.5676 52.48 20.1722 52.1826 20.9782 52.0682C21.829 51.9767 22.635 51.7708 23.3963 51.3818C23.2843 51.1072 23.1948 50.8327 23.1276 50.5352C21.9857 49.5514 21.2245 48.0871 21.0901 46.4626C20.3289 46.8286 19.5005 46.9659 18.6049 46.8287C17.7317 46.6914 17.1047 47.0346 16.6346 47.7439C16.3435 48.2015 16.1196 48.6819 15.9405 49.1853C15.7613 49.7115 15.5822 50.2378 15.4031 50.764C15.112 51.5648 15.112 51.5648 14.2836 51.3589C13.5448 51.1759 12.8283 51.2216 12.0894 51.7479C12.1342 50.398 12.3581 49.2311 12.9178 48.1557C13.0298 47.9269 13.1417 47.7438 12.8731 47.5608C12.6044 47.3778 12.4924 47.6523 12.3805 47.7896C12.067 48.1099 11.9327 48.5447 11.7983 48.9565C11.4849 49.9632 11.3058 51.0157 11.3058 52.0911C11.3058 53.3037 10.858 54.3333 10.2534 55.3172C9.80565 56.0265 9.29068 56.6442 8.68615 57.1934C8.50703 57.3535 8.3503 57.651 8.10402 57.5137C7.83534 57.3535 7.72339 57.0561 7.67861 56.7358C7.63383 56.4383 7.76817 56.2553 8.01446 56.118C8.32791 55.9578 8.64137 55.8434 8.95483 55.729C9.06678 55.6833 9.2459 55.6604 9.22351 55.4773C9.17873 55.2714 8.99961 55.3172 8.84288 55.3172C8.52942 55.3401 8.21597 55.4316 7.9249 55.5689C7.63383 55.729 7.4771 55.5917 7.34276 55.3401C7.0293 54.7223 7.34276 54.0588 8.05924 53.6927C8.48464 53.4868 8.95483 53.441 9.51458 53.3037C8.77571 52.9834 8.1488 53.1436 7.54427 53.3037C7.18603 53.3953 7.07408 53.2809 7.0293 52.9605C6.89497 52.2512 7.11886 51.8165 7.79056 51.5648C8.32791 51.3818 8.88766 51.3589 9.51458 51.3132C9.35785 51.0157 9.08917 50.9928 8.84288 50.97C8.39509 50.9242 7.96968 51.0157 7.56666 51.153C7.27559 51.2445 7.20842 51.1759 7.20842 50.8784C7.23081 50.4895 7.43232 50.2836 7.74578 50.1463C8.3727 49.8488 9.022 49.8717 9.82804 49.8946C9.17873 49.3455 8.5742 49.2539 7.94729 49.4141C7.54427 49.5056 7.45471 49.4141 7.49949 49.0023C7.58905 48.4303 7.85773 48.1786 8.48465 48.0871C9.06678 48.0184 9.62653 48.2015 10.3206 48.3845C9.80565 47.6752 9.17873 47.5608 8.48465 47.5151C8.28314 47.5151 7.94729 47.7667 7.90251 47.332C7.83534 46.9202 7.88012 46.5083 8.3727 46.3253C8.91005 46.1422 9.44741 46.188 9.98476 46.2566C10.2758 46.3024 10.5669 46.371 10.9923 46.4397C10.4773 45.7304 9.85043 45.4558 9.15634 45.4558C8.5742 45.4558 8.52942 45.227 8.64137 44.7465C8.84288 43.8542 8.97722 42.9848 9.31307 42.1382C9.4698 41.7493 9.38024 41.2917 9.35785 40.8798C9.35785 39.896 9.55936 39.0494 10.1863 38.2028C10.8804 37.3105 11.3058 36.1894 11.8879 35.2055C13.0298 33.2607 14.5971 31.7277 16.5226 30.5837C16.8361 30.4007 17.1719 30.2405 17.5301 30.149C17.4406 29.8287 17.3734 29.4855 17.351 29.1423C16.7017 29.394 16.0972 29.7601 15.5151 30.1948C13.5671 31.6591 12.1118 33.5353 10.9027 35.6631C10.455 36.4868 10.0967 37.3563 9.51458 38.0884C9.06678 38.6376 8.88766 39.2553 8.84288 39.9417C8.7981 41.0171 8.59659 42.0238 8.1488 43.0077C7.701 43.9915 7.38754 45.0211 7.40993 46.1194C7.40993 46.2109 7.40993 46.3253 7.34276 46.3939C6.53673 47.3091 6.96213 48.5904 6.42478 49.5743C6.29044 49.826 6.51434 50.1691 6.35761 50.4666C5.86503 51.3589 5.88742 52.4114 5.82025 53.3724C5.75308 54.2189 5.97698 55.0884 5.82025 55.9807C5.75308 56.3468 5.90981 56.7129 6.11132 57.0103C6.29044 57.2849 6.22327 57.4222 5.99937 57.6281C4.92466 58.5204 3.73799 59.2068 2.43938 59.733C1.83486 59.9847 1.18555 60.1678 0.581025 60.4423C-0.15784 60.7855 -0.18023 61.2889 0.446686 61.7694C0.536246 61.838 0.648195 61.8609 0.670585 61.9982C0.849704 62.7761 0.984043 62.9134 1.7453 62.982C2.82001 63.0736 3.84994 62.8448 4.85749 62.5244C5.9322 62.2041 6.91736 61.6779 7.9249 61.266C8.23836 62.1583 8.99961 62.6846 9.51458 63.3939C9.76087 63.76 10.1191 64.1032 10.4326 64.4235C10.8804 64.8811 11.4177 65.27 11.8431 65.7505C11.9327 65.842 12.1118 65.8878 12.2685 65.9107C12.5148 65.9336 12.6268 66.0251 12.7163 66.2539C12.9402 66.9174 13.4328 67.2377 14.0821 67.2835C14.3284 67.3064 14.4851 67.3521 14.6419 67.5809C14.8881 68.0157 15.3136 68.2216 15.8061 68.1758C16.1868 68.153 16.433 68.2673 16.6793 68.5419C17.0152 68.9309 17.463 69.091 17.9556 68.908C18.2242 68.7936 18.4929 68.8851 18.7392 68.8393C19.4557 68.7249 20.1722 68.6563 20.8886 68.7021C20.9334 68.7021 21.0006 68.6792 21.0454 68.6334C21.426 68.2445 21.9633 68.2674 22.3887 68.0614C23.2619 67.6267 24.0008 66.9403 24.4934 66.0709C24.6949 65.7277 24.8292 65.3844 25.1427 65.1099C25.389 64.904 25.5457 64.6065 25.6577 64.2862C25.792 63.9201 25.7024 63.5083 25.8144 63.1422C26.2398 61.6321 25.7024 60.3966 24.8069 59.2526C23.8217 58.1772 22.747 57.3077 21.6051 56.4841ZM17.1271 51.4504C17.9556 50.2378 18.381 48.8421 18.7392 47.4235C18.8064 49.4141 18.0227 51.1072 16.8361 52.7088C16.7241 52.1826 16.8808 51.8165 17.1271 51.4504ZM0.581025 61.1059C0.536245 60.8084 0.939263 60.7627 1.18555 60.694C2.88718 60.2135 4.49925 59.4814 5.95459 58.4289C6.06654 58.3602 6.20088 58.017 6.38 58.3602C6.49195 58.589 6.67107 58.8178 6.33522 59.0466C5.90981 59.3441 5.46201 59.6415 4.99183 59.8932C3.80516 60.4652 2.64089 61.1059 1.31989 61.2889C1.05121 61.3118 0.648195 61.4719 0.581025 61.1059ZM8.26075 60.4881C6.35761 61.5635 4.58881 62.2727 2.66328 62.5244C2.34982 62.5702 2.03637 62.5931 1.72291 62.4787C1.58857 62.4329 1.45423 62.3872 1.43184 62.227C1.40945 62.0897 1.5214 61.9753 1.63335 61.9067C1.87964 61.7923 2.14832 61.655 2.41699 61.5635C6.6039 60.122 9.71609 57.3764 11.9775 53.5554C12.2685 53.052 12.6492 52.686 13.1641 52.4572C13.6119 52.2741 14.0597 52.2741 14.4403 52.6173C14.7986 52.9605 14.9329 53.3724 14.821 53.8757C14.6642 54.5393 14.306 55.1113 13.8806 55.6375C12.2461 57.651 10.2087 59.2068 8.26075 60.4881ZM14.8881 59.1382C14.0373 60.5796 13.5224 62.1812 13.097 63.8057C13.0522 63.9659 13.097 64.2404 12.8059 64.2176C12.4253 64.1947 12.1118 64.0574 11.8879 63.7371C11.776 63.5769 11.6416 63.3939 11.8207 63.1651C12.0894 62.8219 12.3357 62.4558 12.4924 61.9067C12.0894 62.1355 11.8431 62.41 11.4849 62.5244C11.0371 62.6617 10.2534 62.0897 10.2534 61.6321C10.2534 61.4491 10.3878 61.4262 10.4773 61.3347C10.7236 61.1287 10.9475 60.8999 11.0819 60.511C10.746 60.6483 10.455 60.8084 10.1639 60.8999C9.89521 60.9915 9.6937 60.8313 9.58175 60.5796C9.49219 60.3737 9.55936 60.2135 9.73848 60.0991C11.3953 59.1153 12.8283 57.834 14.2836 56.4612C14.5075 57.262 14.709 57.9484 14.9329 58.6577C15.0001 58.8178 15.0001 58.978 14.8881 59.1382ZM24.8516 61.9753C24.7621 62.6159 24.6053 63.2337 24.6277 63.8744C24.6277 64.0345 24.583 64.2862 24.471 64.3548C23.9784 64.6752 23.8665 65.3158 23.4859 65.6819C22.9485 66.1624 22.2768 66.5056 21.6499 66.8945C21.5379 66.9632 21.3364 66.9632 21.2021 66.9174C20.7543 66.7344 20.3737 66.6657 19.9483 67.1005C19.6572 67.3979 19.2989 67.0547 19.1198 66.7801C18.9183 66.5056 18.8064 66.3912 18.4705 66.6429C18.0003 66.9861 17.5749 66.7573 17.2167 66.3912C17.06 66.231 16.948 66.1395 16.7017 66.2539C16.0748 66.5285 15.6046 66.231 15.5598 65.5446C15.4703 64.0345 15.8733 62.6159 16.5898 61.2889C16.7465 61.0143 16.8585 61.1059 16.9928 61.2889C17.5525 61.9524 18.1571 62.5473 18.8959 63.0049C20.0378 63.6913 21.0901 63.6684 21.8738 62.9363C22.7246 62.1126 22.9261 60.8771 22.344 59.7102C22.1201 59.2297 21.8066 58.8178 21.4708 58.4518C21.1573 58.1086 20.7991 57.8111 20.8662 57.2391C20.8886 56.8959 20.6423 56.7815 20.3289 56.9646C19.9035 57.2162 19.4781 57.445 18.9855 57.5366C18.7616 57.5823 18.4929 57.6052 18.381 57.3764C18.2466 57.1247 18.5153 57.0103 18.6944 56.9188C18.9855 56.7586 18.9855 56.5756 18.8511 56.301C18.6496 55.9121 18.4034 55.4773 18.9855 55.1799C19.4557 54.9282 20.0378 55.1799 20.2841 55.7061C20.3289 55.8205 20.3737 55.9121 20.4408 56.0265C20.6199 56.4612 20.9334 56.7586 21.3364 57.0103C22.3887 57.6738 23.3291 58.4746 24.0456 59.4814C24.5606 60.1907 25.0084 61.0372 24.8516 61.9753Z" fill="white"/>
<path d="M19.9034 39.0723C19.8139 38.9121 19.7243 38.7291 19.6571 38.5461C19.4332 38.9579 19.2989 39.3926 19.2317 39.8731C19.0078 41.6806 18.3809 43.2365 16.3658 43.6712C16.2315 43.6941 16.1195 43.7627 16.03 43.8085C15.8285 43.9458 15.5598 44.0144 15.6046 44.3119C15.6493 44.5864 15.8956 44.5864 16.0747 44.6322C16.7017 44.7695 17.1718 45.1355 17.5525 45.6389C17.7988 45.9821 17.9555 45.9135 18.2018 45.6618C19.2989 44.5635 19.9034 43.2823 19.6571 41.6806C19.5004 40.7426 19.5452 39.8502 19.9034 39.0723Z" fill="white"/>
<path d="M17.5079 39.0494C17.1497 39.2782 16.993 39.5299 16.9258 39.8274C16.7243 40.5138 16.2765 40.8798 15.6048 40.9714C15.4257 40.9942 15.2242 40.9943 15.157 41.2231C15.1122 41.3603 15.0003 41.3832 14.8883 41.3146C14.7764 41.2459 14.7092 41.1315 14.7764 41.0171C15.0226 40.6053 14.7987 40.2392 14.6868 39.8731C14.4629 39.0037 14.7092 38.7062 15.6048 38.752C15.7167 38.752 15.8287 38.7749 15.9406 38.7977C16.3884 38.8893 16.9034 38.9579 17.5079 39.0494ZM14.8435 39.5299C15.1346 39.0494 15.6272 39.1867 16.1197 39.1181C15.3137 38.7749 14.9555 38.8893 14.8435 39.5299Z" fill="white"/>
<path d="M12.4703 41.4061C12.851 41.5662 12.9181 41.8179 13.0077 42.0467C13.1868 42.5272 13.3883 42.9619 14.06 42.5501C12.9853 43.9686 12.1793 45.4787 11.418 47.0803C11.2389 46.7829 11.3061 46.5312 11.3285 46.2795C11.3732 45.6389 11.6195 45.044 11.8658 44.472C12.2464 43.511 12.6942 42.573 12.4703 41.4061Z" fill="white"/>
<path d="M13.4997 38.4545C13.6341 37.219 14.4177 36.6699 15.4476 37.0588C15.6715 37.1504 15.9178 37.2419 16.097 37.402C16.5895 37.8139 17.1269 38.1113 17.7986 37.8367C17.418 38.1342 17.0373 38.1571 16.6119 37.9969C16.2985 37.8596 15.985 37.7452 15.6492 37.6537C14.7983 37.4478 14.0595 37.5622 13.4997 38.4545Z" fill="white"/>
<path d="M13.7461 40.7654C13.97 40.2392 13.9252 39.7129 13.9252 39.1638C13.9252 38.3859 14.1939 38.1113 14.9551 38.1571C15.4029 38.18 15.8283 38.2715 16.2761 38.4088C15.8731 38.4088 15.4701 38.4316 15.0671 38.4316C14.5521 38.4545 14.2834 38.7062 14.2611 39.2553C14.2163 39.8273 14.3058 40.4222 13.7461 40.7654Z" fill="white"/>
<path d="M17.1946 39.9417C17.2618 40.9484 16.5453 41.4976 15.5154 41.223C16.2542 40.9942 16.8587 40.6739 17.1946 39.9417Z" fill="white"/>
<path d="M19.2098 56.5985C19.3217 56.2324 19.3217 55.9579 19.1202 55.7062C19.0306 55.5918 19.0083 55.4545 19.1426 55.363C19.2769 55.2715 19.3889 55.363 19.4784 55.4545C19.8143 55.7748 19.7471 56.2095 19.2098 56.5985Z" fill="white"/>
<path d="M3.91685 61.7008C4.63333 61.3805 5.23786 61.1059 5.81999 60.8313C8.2381 59.6415 10.4099 58.1086 12.0444 55.9121C12.5369 55.2486 12.9624 54.5622 13.231 53.7614C13.343 53.3724 13.9027 53.1894 14.261 53.3724C14.5744 53.5326 14.3505 53.7385 14.2834 53.8986C13.6788 55.1799 12.828 56.2553 11.8205 57.2391C9.82778 59.1611 7.49923 60.5568 4.99157 61.6321C4.7005 61.7465 4.40943 61.8838 3.91685 61.7008Z" fill="white"/>
<path d="M93.0292 45.3185C92.2903 41.4518 91.2828 37.7223 89.0438 34.4276C88.3497 33.398 88.0139 32.2311 88.0811 30.9269C86.6929 29.2109 85.7301 27.1746 85.3943 25.001C84.8793 26.0763 84.3643 27.1288 83.827 28.2042C82.8866 26.6941 82.103 25.3213 81.2521 24.04C81.2745 24.1773 81.2745 24.2917 81.2745 24.429C81.2969 24.7722 81.2745 25.1154 81.2074 25.4357C81.4537 26.0535 81.588 26.717 81.6104 27.4034C81.6328 27.7008 81.6104 27.9983 81.5656 28.2728C82.1477 28.9135 82.5284 29.6914 82.9538 30.4464C83.2672 30.9956 83.5583 31.7506 84.3196 31.6133C85.1032 31.4761 84.7897 30.6295 84.9465 30.1032C84.9689 30.0346 85.0584 29.966 85.1704 29.8516C85.3047 29.9888 85.4614 30.1032 85.5958 30.2405C86.6929 31.4532 87.3422 32.8717 87.6333 34.4962C87.79 35.4572 87.9467 37.0359 88.7751 37.0817C90.0066 37.1503 89.9618 37.9511 90.2305 38.5689C91.238 40.8112 91.9097 43.1678 92.2904 45.5931C92.8053 48.8879 92.268 51.9767 90.6783 54.8824C90.3648 55.4544 90.029 56.0036 89.4244 56.3239C89.2005 56.4383 88.9543 56.5069 88.7304 56.3697C88.4169 56.1637 88.6408 55.9578 88.708 55.729C88.8647 55.157 89.2005 54.6079 88.7975 53.8757C88.596 54.6765 88.3721 55.3401 87.7228 55.7519C87.3198 55.2257 87.5885 54.4935 86.984 54.1274C86.7377 54.6308 87.387 55.4316 86.7153 55.6375C86.1108 55.8205 85.7749 55.0655 85.3943 54.6536C84.9465 54.1732 84.9017 53.6012 85.0584 52.9605C85.2375 52.2512 85.2152 51.4962 84.6778 50.9928C83.6255 50.0319 82.9762 48.865 82.6179 47.0803C81.8567 49.1395 81.588 50.8098 81.9686 52.3199C80.9611 53.0978 81.2969 50.0547 79.8864 51.8394C79.8864 51.8394 79.5505 51.6564 79.4833 51.5191C79.2371 51.0844 79.0579 50.6267 78.7893 50.1005C78.2071 51.3131 77.7593 50.8327 77.4011 50.009C77.2444 49.6429 77.11 49.2539 77.0876 48.865C77.0652 48.5904 77.0205 48.3616 76.9309 48.1557C76.6398 49.0251 76.1025 49.8031 75.4308 50.4437C75.2517 51.5877 74.6919 52.6173 73.9083 53.4181C73.7739 53.8757 73.5724 54.2876 73.3261 54.6994C76.6846 54.196 78.9012 55.1799 80.5133 57.8798C80.6476 58.0857 80.7596 58.3831 80.9387 58.4746C83.1777 59.367 81.7895 62.2499 83.5583 63.5312C83.8942 63.7828 83.3568 65.2243 82.909 66.0251C82.7523 66.2768 82.506 66.5513 82.2149 66.4827C81.7671 66.3912 81.8567 65.9564 81.8567 65.6132C81.8567 64.904 81.9015 64.2176 81.8791 63.5083C81.7223 59.2068 78.2519 55.5002 74.1098 55.2485C73.7963 55.2257 73.4605 55.2256 73.1246 55.2256C72.9455 56.0265 72.5425 56.7815 72.0275 57.4222C72.1843 57.6052 72.3634 57.7882 72.4977 57.9942C72.6544 57.6967 72.8336 57.3993 73.0351 57.1018C74.0202 55.7061 75.0725 55.3858 76.4383 56.3468C79.461 58.4518 81.4984 61.2203 81.2745 65.2243C81.2521 65.4302 81.2298 65.6361 81.2521 65.8192C81.2745 66.3683 81.2521 67.0318 81.7671 67.3064C82.2821 67.5581 82.6179 66.986 82.9762 66.6657C83.1105 66.5513 83.2225 66.3683 83.3792 66.1395C83.6031 67.0318 82.394 67.3521 82.8866 67.8555C83.424 68.4275 84.2972 68.0843 84.9913 67.9013C87.79 67.1462 89.7155 64.7438 89.8051 60.9228C89.8499 58.3831 90.5887 56.3468 91.7754 54.2418C93.2531 51.4504 93.6337 48.4531 93.0292 45.3185ZM82.6851 51.4275C82.9538 50.9013 83.2896 50.5123 83.9613 50.8784C83.7822 51.3131 82.9986 51.2903 83.2001 51.9996C83.4016 52.686 83.9837 52.5029 84.6778 52.5716C83.9165 53.1664 83.3792 53.0749 82.909 52.6402C82.5732 52.3199 82.4612 51.908 82.6851 51.4275ZM86.6481 66.1166C85.8645 66.7573 85.0136 67.2835 83.715 67.0318C85.1928 65.4531 85.1256 63.8515 84.2748 62.1812C84.1628 61.9524 84.0733 61.7007 84.0509 61.4719C84.0061 60.9457 83.6926 60.305 84.1852 59.9161C84.7226 59.4585 85.1704 60.0991 85.6406 60.2822C86.0436 60.4423 86.5138 61.1058 86.8048 60.3737C87.0287 59.8017 86.357 59.5958 85.9092 59.4127C85.6853 59.3212 85.4391 59.2526 85.1928 59.2526C84.3643 59.2754 84.0061 58.8178 83.7822 58.0399C83.3792 56.6442 82.8642 55.2943 82.103 53.9672C83.9389 54.4248 85.3495 55.0884 85.7525 57.0789C85.9316 57.9713 86.7601 57.7654 87.3198 57.4222C88.1482 56.9188 88.4841 57.1934 88.7751 58.0399C89.6707 60.6025 88.708 64.3777 86.6481 66.1166Z" fill="white"/>
<path d="M37.0094 52.0911C37.099 51.153 37.1438 50.2149 37.0542 49.2768C36.9199 47.9726 36.3825 46.8973 35.2854 46.0278C35.3302 46.4626 35.3526 46.76 35.3974 47.0803C35.5989 48.9565 35.2854 50.7869 35.1287 52.6402C34.9048 55.0884 35.5541 57.1933 37.502 58.8178C36.7184 56.5756 36.7632 54.3333 37.0094 52.0911Z" fill="white"/>
<path d="M59.3546 30.5837C60.0263 31.2244 60.7204 31.8422 61.4368 32.437C61.9518 32.8489 62.5563 33.1692 63.4071 33.009C62.2876 32.2769 61.4816 31.3617 60.698 30.4465C60.0934 29.7601 59.4665 29.1194 58.7053 28.616C57.4738 27.8152 56.1752 27.7008 54.8094 28.3872C56.6678 28.4559 58.056 29.394 59.3546 30.5837Z" fill="white"/>
<path d="M33.4492 36.8758C32.6656 37.2647 31.8819 37.6308 31.1655 38.1113C29.934 38.8892 29.1728 40.0332 28.8817 41.4976C29.9116 40.3078 31.2326 39.5985 32.576 38.8892C33.2925 38.5003 34.009 38.1342 34.6359 37.6079C35.3748 36.9902 35.8673 36.2351 36.0241 35.114C35.1956 35.9148 34.3448 36.441 33.4492 36.8758Z" fill="white"/>
<path d="M53.376 23.3994C51.5624 24.0858 50.2862 25.2984 49.6816 27.1746C50.8683 25.8704 52.0997 24.5891 53.376 23.3994Z" fill="white"/>
<path d="M53.4655 51.0843C51.0026 48.9336 46.2559 48.9336 43.7931 51.0843C42.696 52.0453 42.2034 53.2808 42.2705 54.8824C43.2557 54.013 44.1289 54.2876 44.9797 54.8138C46.1216 55.5002 47.062 56.4383 48.0247 57.3535C48.4725 57.7653 48.7636 57.7882 49.189 57.3535C50.1742 56.4154 51.1369 55.4544 52.3012 54.768C53.152 54.2647 54.0028 54.0359 54.9432 54.8824C55.0328 53.2579 54.5402 52.0453 53.4655 51.0843ZM48.8308 52.3199C48.674 52.5487 48.5397 52.5258 48.383 52.3199C47.7785 51.4733 46.9724 51.1759 45.7858 51.3818C47.7113 49.6429 49.5696 49.6658 51.3608 51.336C50.2861 51.1987 49.4353 51.4504 48.8308 52.3199Z" fill="white"/>
<path d="M47.5327 27.1288C46.8834 25.2527 45.652 24.04 43.8384 23.3994C45.137 24.5891 46.346 25.8475 47.5327 27.1288Z" fill="white"/>
<path d="M33.8301 33.009C34.6585 33.1463 35.2182 32.8946 35.7108 32.5057C36.3601 32.0023 36.9647 31.4532 37.5692 30.9041C38.9574 29.577 40.4351 28.433 42.5621 28.4559C41.0172 27.5636 39.338 27.8381 37.7707 29.2109C36.4049 30.4007 35.4645 31.9794 33.8301 33.009Z" fill="white"/>
<path d="M35.8672 26.1679C34.5462 25.1611 32.128 25.0925 30.7399 26.0306C29.7099 26.7399 29.2845 27.861 29.598 29.0736C30.5831 26.328 31.7698 25.7789 35.8672 26.1679Z" fill="white"/>
<path d="M40.9732 25.5959C42.0927 26.0992 43.1674 26.717 44.2198 27.3805C43.4137 26.2365 42.3166 25.6874 40.9732 25.5959Z" fill="white"/>
<path d="M67.7279 29.2338C67.907 27.7008 67.5487 26.5797 66.3621 25.9162C64.6828 24.9781 63.0036 25.2298 61.3691 26.0992C64.0335 25.8704 66.6755 25.6645 67.7279 29.2338Z" fill="white"/>
<path d="M46.6141 42.2984C47.4202 42.55 47.9127 43.0077 48.2038 43.6941C48.2934 42.5272 47.8008 42.0696 46.6141 42.2984Z" fill="white"/>
<path d="M68.3771 41.4747C67.9517 39.4383 66.6307 38.2257 64.8843 37.402C63.6305 36.7842 62.3318 36.258 61.2123 35.0682C61.481 36.7842 62.4886 37.6537 63.6752 38.3401C65.3321 39.2782 67.0785 40.0103 68.3771 41.4747Z" fill="white"/>
<path d="M62.0187 46.005C61.1231 46.6685 60.6529 47.4693 60.3842 48.4303C60.0484 49.6429 60.138 50.8785 60.2723 52.0911C60.4962 54.3563 60.5634 56.5985 59.8245 58.795C61.75 57.1705 62.3993 55.0655 62.1978 52.6174C61.9515 50.4438 61.5933 48.293 62.0187 46.005Z" fill="white"/>
<path d="M56.4884 25.573C54.9883 25.5959 53.6897 26.3052 53.0628 27.4034C54.0703 26.6484 55.1898 26.1221 56.4884 25.573Z" fill="white"/>
<path d="M41.4652 35.1598C41.107 35.5487 41.107 35.9606 41.3981 36.3266C41.622 36.6241 41.9354 36.7614 42.2713 36.647C42.6743 36.5326 42.943 36.2809 42.8982 35.686C42.1369 36.2809 41.7563 35.8004 41.4652 35.1598Z" fill="white"/>
<path d="M50.7119 42.2297C49.3685 42.1153 48.8983 42.5729 49.0326 43.9C49.3013 42.9848 49.8387 42.5501 50.7119 42.2297Z" fill="white"/>
<path d="M56.3548 41.795C57.3399 41.5434 58.3251 41.3374 59.2431 40.9485C60.5193 40.4222 60.7656 39.8273 60.2058 38.546C59.8476 37.7224 59.4222 36.8987 59.2655 35.9835C58.8624 33.5582 57.4743 31.8422 55.4592 30.6066C54.3621 29.9202 53.1978 29.3711 51.9888 28.9135C51.4962 28.7305 51.3842 28.5017 51.6753 28.0441C52.235 27.1746 52.7724 26.2823 53.3098 25.39C51.2499 27.2204 48.9437 28.8906 48.9661 32.1396C48.9661 33.398 48.8094 34.6564 48.7198 35.9148C48.4512 34.8166 48.272 33.7183 48.3168 32.6201C48.4064 30.5609 47.6227 28.9135 46.2569 27.472C45.6748 26.8543 45.0703 26.2594 44.4658 25.6645C44.3314 25.5272 44.1971 25.2984 43.9284 25.39C44.4881 26.2823 45.0031 27.1746 45.5405 28.0212C45.8763 28.5245 45.742 28.7305 45.2046 28.9364C43.9508 29.394 42.7193 29.9889 41.5775 30.721C39.6743 31.9566 38.3533 33.6039 37.9727 35.9377C37.8607 36.647 37.5921 37.3105 37.301 37.9512C36.3606 39.9875 36.5845 40.4909 38.6668 41.1773C39.2489 41.3603 39.8534 41.4976 40.4356 41.6577C40.7266 41.7493 41.0401 41.795 41.3312 41.9094C42.0477 42.184 42.1596 42.573 41.7566 43.2365C41.6446 43.4195 41.4879 43.6026 41.3312 43.7627C39.943 45.3643 39.8982 46.6685 41.1968 48.3616C41.4655 48.7277 41.8014 49.0252 42.0924 49.3684C42.4507 49.8031 42.7865 49.8717 43.3015 49.5743C44.2866 49.0252 45.2718 48.476 46.3241 48.0871C47.466 47.6752 47.9362 46.9888 47.7795 45.7533C47.7123 45.2271 47.6003 44.8381 47.1749 44.5407C46.5256 44.0602 45.8315 43.6254 45.1151 43.2365C44.8016 43.0534 44.4658 42.8704 44.2195 42.6187C43.7269 42.1153 44.0627 41.6577 44.4434 41.2917C44.9583 40.7883 44.9359 41.4747 45.0927 41.6577C45.3614 41.9552 45.6076 42.0696 45.9659 41.8637C46.145 41.7721 46.3241 41.6806 46.4808 41.5891C47.8914 40.6281 49.302 40.6053 50.7125 41.5662C51.3171 41.9781 51.9216 42.2984 52.3246 41.3145C52.4365 41.04 52.5933 41.1086 52.7724 41.2459C53.3769 41.7264 53.4217 42.367 52.7948 42.8018C52.235 43.1907 51.6529 43.5339 51.0484 43.8314C49.7945 44.4491 49.2348 45.3872 49.4587 46.8287C49.5259 47.2176 49.6154 47.4464 49.9737 47.6066C51.3618 48.2701 52.75 48.9794 54.1158 49.6429C54.3397 49.7573 54.5412 49.8946 54.7875 49.6658C56.5563 48.0413 58.1012 45.9135 55.7502 43.5797C54.8546 42.6874 55.0786 42.1154 56.3548 41.795ZM44.0627 32.5057C43.8388 32.9862 43.8836 33.4438 43.9508 33.9243C43.9732 34.1073 44.0403 34.359 43.7717 34.4047C43.5478 34.4276 43.4582 34.1988 43.4358 34.0158C43.2791 33.3751 43.4358 32.8489 44.0627 32.5057ZM43.7269 37.6766C43.3687 37.2648 43.0104 36.9902 42.3611 37.1732C41.5999 37.402 40.749 37.1504 40.3908 36.4182C40.055 35.7776 39.5624 35.5945 38.7787 35.3886C40.1445 34.6793 41.3536 33.8556 42.7641 34.5649C44.2419 35.3199 44.1971 36.8987 44.309 38.363C44.1299 38.1342 43.9284 37.8825 43.7269 37.6766ZM53.8471 33.9471C53.8023 34.1759 53.7576 34.4505 53.4665 34.4047C53.2202 34.359 53.265 34.0844 53.3098 33.9243C53.3993 33.4438 53.3769 32.9862 53.0411 32.3455C53.8023 32.826 53.9367 33.3294 53.8471 33.9471ZM55.0114 37.1961C54.1606 36.9673 53.7128 37.3563 53.265 37.9512C53.153 38.0884 53.0859 38.3172 52.7948 38.3859C53.0187 36.8987 52.9963 35.2742 54.5412 34.542C55.907 33.9014 57.0936 34.6793 58.437 35.4343C57.6086 35.5487 57.1608 35.8233 56.825 36.4411C56.4891 37.1046 55.7279 37.3792 55.0114 37.1961Z" fill="white"/>
<path d="M55.8619 36.3266C56.1306 35.9377 56.1306 35.5487 55.7276 35.114C55.5485 35.9834 55.0335 36.1207 54.3618 35.7775C54.2946 36.3266 54.6081 36.5554 54.9887 36.6698C55.3246 36.7614 55.638 36.6241 55.8619 36.3266Z" fill="white"/>
<path fill-rule="evenodd" clip-rule="evenodd" d="M78.3855 11.1585C78.5422 12.8745 78.8109 16.4209 78.6989 21.1114C78.5016 21.0162 78.3017 20.9223 78.1003 20.8279L78.1003 20.8278L78.1003 20.8278L78.1002 20.8278C77.479 20.5363 76.8447 20.2387 76.236 19.8759C76.4775 19.743 76.7189 19.6416 76.9476 19.5456L76.9477 19.5456L76.9483 19.5453L76.949 19.545L77.0068 19.5207L77.0869 19.4869C76.9035 19.4292 76.7291 19.3534 76.5523 19.2766C76.4485 19.2315 76.3438 19.186 76.236 19.1437C75.2509 19.2352 74.2657 19.2123 73.2358 19.0522C72.9223 19.0064 72.5865 18.9378 72.273 18.8462C72.0044 19.1666 71.6013 19.281 71.1312 19.281C70.3027 19.281 69.4967 19.2581 68.6683 19.0522C68.3772 18.9606 68.0862 18.892 67.7951 18.8234L67.7951 18.8234C67.3025 19.2352 66.7875 19.5784 66.2278 19.8987C67.9294 20.1733 69.6534 20.4021 71.3774 20.5394C71.6909 20.5623 71.8924 20.6995 72.0268 20.9055C74.4896 21.6147 76.6614 22.9418 78.587 24.5892L78.5783 24.727C78.5363 25.3932 78.4931 26.0794 78.4303 26.7857C77.7362 35.2742 76.0345 42.6645 73.3701 48.7735C72.5193 49.1853 71.7581 49.826 70.9744 50.4895V50.5124C71.064 52.1369 70.2803 53.647 69.0937 54.6994C68.7578 56.0036 68.31 57.2849 67.7727 58.5433C61.3916 67.5352 53.779 72.8892 48.898 75.6805C42.7408 72.0655 34.4118 65.7048 28.0307 55.2257C27.0903 53.6927 26.2171 52.0682 25.4334 50.3522C25.5678 50.2836 25.6797 50.3522 25.7917 50.5124C25.8765 50.6511 25.9742 50.7635 26.075 50.8795L26.075 50.8795C26.1072 50.9166 26.1398 50.9541 26.1723 50.9929C25.5678 49.1396 25.2543 47.1947 25.1648 45.2728C25.1424 44.4262 25.1872 43.5797 25.2991 42.7789C25.2319 42.9162 25.1648 43.0306 25.0752 43.145L25.0751 43.145C24.5154 43.8543 23.9557 44.5636 23.3288 45.1813C22.5452 42.8933 21.8511 40.5137 21.2913 37.9969L21.3361 37.9512C21.3473 37.9283 21.3641 37.9054 21.3809 37.8825C21.3977 37.8596 21.4145 37.8368 21.4257 37.8139C21.4391 37.791 21.4552 37.7681 21.4713 37.7452C21.5358 37.6537 21.6003 37.5622 21.4928 37.4707C21.4033 37.3792 21.2913 37.402 21.1794 37.4707C20.7316 35.3886 20.3509 33.2379 20.0375 31.0185C20.127 30.1033 20.4181 29.2109 21.0226 28.3873C22.2093 26.7399 23.6646 25.39 25.3215 24.2688C25.7693 23.9714 26.2171 23.6511 26.5305 23.1706C26.8664 22.6672 27.3366 22.4384 27.8963 22.324C28.5245 22.1871 29.1559 22.0789 29.7868 21.9709L29.7869 21.9709L29.7869 21.9709L29.787 21.9708L29.787 21.9708C30.8426 21.7901 31.8971 21.6094 32.9341 21.2944C33.352 21.1724 33.77 21.03 34.1879 20.8876L34.1882 20.8876C34.397 20.8164 34.6059 20.7453 34.8148 20.6767C34.8482 20.6639 34.8815 20.6479 34.9151 20.6319C35.0614 20.5618 35.2106 20.4905 35.3745 20.6767C35.5537 20.8826 35.5089 21.0427 35.3745 21.2487C35.3074 21.3402 35.285 21.4088 35.285 21.4775L35.2851 21.4775C35.6209 21.5003 35.9567 21.5232 36.2701 21.569C36.3037 21.5461 36.3317 21.5232 36.3597 21.5003C36.3877 21.4775 36.4157 21.4546 36.4493 21.4317C36.7403 21.0427 37.0762 20.6538 37.4344 20.3106C36.494 19.6013 35.5537 19.2352 34.2774 19.8301C33.1101 20.3737 31.8452 20.6084 30.5794 20.8432C29.9272 20.9642 29.2747 21.0853 28.6352 21.2487L28.5969 21.2586C27.1999 21.6211 25.8511 21.971 25.008 23.3994C24.6801 23.9739 24.1343 24.3814 23.5834 24.7928C23.3445 24.9712 23.1045 25.1504 22.881 25.3442C22.6589 25.5356 22.4326 25.7217 22.2066 25.9076C21.2708 26.6773 20.3416 27.4416 19.7464 28.5474V28.5245C18.8508 20.3792 19.1643 13.8355 19.3882 11.1585C28.4337 7.47481 37.927 5.53 47.6442 5.36983H48.8756C59.0182 5.36983 68.937 7.31465 78.3855 11.1585ZM20.9779 32.4142C21.2242 33.3294 21.6943 34.0844 22.5899 34.4505L22.664 34.4815C23.5122 34.8365 24.3496 35.187 24.8065 36.1208C24.8065 35.5716 24.605 35.1598 24.202 34.8623C23.8662 34.6335 23.5079 34.4276 23.1273 34.2446C22.2093 33.8099 21.6496 33.0777 21.3809 32.0939C21.3739 32.062 21.3681 32.0295 21.3622 31.997C21.3302 31.8198 21.298 31.6414 21.0898 31.5447C20.9107 31.8193 20.8883 32.1167 20.9779 32.4142ZM25.4334 41.4518C25.4558 41.612 25.4782 41.7722 25.4782 41.9323C25.635 41.1086 25.9036 40.3078 26.2619 39.5528C26.2081 39.5253 26.1544 39.4905 26.1007 39.4558C26.0201 39.4036 25.9395 39.3514 25.8589 39.324C25.5454 39.2096 25.2319 39.0952 24.9633 39.3697C24.7064 39.6322 24.8331 39.8769 24.9588 40.1195L24.9588 40.1195C24.9756 40.1518 24.9923 40.1841 25.008 40.2163C25.1872 40.6053 25.3439 41.0171 25.4334 41.4518ZM22.5228 32.643C22.5675 31.3159 23.0377 30.1719 23.7766 29.1194C24.4931 28.1127 25.3215 27.1975 26.2843 26.3738C26.9112 25.8247 27.6053 25.4357 28.3665 25.2756C28.5232 25.0239 28.7024 24.7951 28.8815 24.5663C27.4485 24.7722 26.1499 25.3213 25.0976 26.3738C24.0901 27.3805 23.2169 28.5245 22.4108 29.7143C21.7167 30.721 21.7615 31.6591 22.5228 32.643ZM76.2584 24.9552C75.0046 24.04 73.6612 23.285 72.2059 22.7816C70.9744 22.6901 69.7206 22.5528 68.4668 22.3927C69.3848 23.0333 70.3027 23.6968 71.1759 24.7951C70.5685 24.6325 69.9891 24.4699 69.4317 24.3135L69.4314 24.3134L69.4308 24.3133L69.4304 24.3132L69.4283 24.3126C69.1239 24.2272 68.8262 24.1436 68.5339 24.0629C68.9593 24.4748 69.3176 24.9552 69.5863 25.5044C70.4819 25.3671 71.4222 25.39 72.3402 25.5272C72.6537 25.573 72.9895 25.6416 73.303 25.7103C74.1762 25.0696 75.1837 24.7951 76.2584 24.9552ZM66.9666 32.7803C67.5712 32.0939 68.0414 31.3159 68.3324 30.4465C69.3176 27.5636 67.9294 25.0239 64.9963 24.4061C64.1903 24.246 63.3843 24.2917 62.5782 24.4061C61.5222 24.5721 60.5399 24.964 59.5477 25.3598C59.446 25.4004 59.3442 25.4411 59.2421 25.4815C59.0406 24.2688 59.3989 23.285 60.0706 22.2096C56.7793 22.6215 54.2268 21.2258 51.9207 19.0979V21.4088C50.3981 20.7224 49.5026 19.4411 48.607 18.0912C47.7114 19.464 46.8158 20.7224 45.2709 21.4088V19.075C42.9647 21.2944 40.4123 22.5986 37.121 22.2096C37.8598 23.3079 38.1733 24.2917 37.9718 25.4815C37.6136 25.3213 37.2777 25.1841 36.9419 25.0468L36.9418 25.0468C35.6208 24.5434 34.2774 24.2231 32.8445 24.3146C29.6875 24.5205 27.8739 27.2433 28.8591 30.3092C29.1502 31.2244 29.6204 32.0252 30.2473 32.7345C30.5607 33.0548 30.5607 33.2379 30.2025 33.5353C29.598 34.0387 29.0606 34.6107 28.6576 35.503C29.7099 34.8624 30.6727 34.4047 31.9489 34.2675C27.1799 37.1961 26.3962 41.6349 26.7544 46.7371C28.0754 44.5407 28.3665 44.1975 29.2397 43.9229C27.762 46.2567 27.3366 47.9956 27.7396 50.398C28.4337 54.4706 30.6727 57.6967 33.158 60.7856C33.1722 60.8002 33.2047 60.7961 33.2438 60.7913C33.266 60.7886 33.2903 60.7856 33.3147 60.7856C33.143 60.3661 32.9664 59.9492 32.7898 59.5323C32.4365 58.6984 32.0832 57.8645 31.7698 57.0103C30.7622 54.3105 30.0681 51.5649 30.4488 48.6362C30.6055 47.3092 31.0533 45.9821 31.5907 45.4787C31.0981 50.3293 31.6354 54.974 34.1655 59.2068C36.6732 63.4168 40.3675 66.1624 44.6887 68.1987C43.2558 66.5056 42.3378 64.5837 42.0691 62.3414C41.7997 62.4791 41.6374 62.6921 41.4834 62.8942C41.3559 63.0616 41.234 63.2216 41.0616 63.3253C40.457 62.0669 40.0316 58.3145 40.3675 56.9188C40.547 57.4415 40.6833 57.9606 40.8182 58.4745L40.8183 58.4746C41.02 59.2428 41.2188 59.9995 41.5541 60.7398C41.7348 60.5276 41.868 60.293 41.9995 60.0616C42.1939 59.7193 42.3844 59.3839 42.7184 59.1382C42.696 61.1974 43.1214 63.0278 44.1066 64.7209C44.6137 65.5847 45.1921 66.3999 45.7701 67.2147C46.8764 68.7742 47.9816 70.3321 48.5846 72.2256C49.2339 70.4639 50.1295 68.9309 51.2042 67.5123C53.0625 65.0413 54.6298 62.4787 54.6074 59.1611C54.7735 59.41 54.9341 59.6589 55.1 59.9161L55.1002 59.9163L55.1002 59.9164C55.2698 60.1792 55.445 60.4508 55.6374 60.7398C55.9564 60.0356 56.1518 59.3092 56.352 58.5647C56.5031 58.0028 56.657 57.4307 56.8688 56.8502C57.1375 58.7035 56.6673 62.4101 56.0852 63.3253C55.9328 63.2279 55.8209 63.0809 55.7047 62.9282C55.5478 62.722 55.383 62.5055 55.1 62.3872C54.9209 63.5083 54.6746 64.5608 54.2044 65.5446C53.7635 66.4908 53.1056 67.326 52.3803 68.2468L52.3802 68.2469L52.3461 68.2903C60.4064 64.721 66.9666 57.4679 65.6233 45.4787C65.8236 45.5346 65.8906 45.7115 65.9568 45.8864L65.9569 45.8865L65.9569 45.8866L65.957 45.8869C65.9646 45.907 65.9723 45.9271 65.9801 45.947C65.985 45.9597 65.9901 45.9722 65.9952 45.9846C65.9981 45.9915 66.001 45.9982 66.0039 46.005C66.6756 47.6066 66.9443 49.2768 66.8323 51.0157C66.6308 54.1046 65.5785 56.9646 64.3246 59.756C64.2915 59.8285 64.2544 59.9001 64.2162 59.9736C64.0738 60.2479 63.9169 60.5501 63.8992 61.0372C65.7128 58.795 67.2577 56.6214 68.3548 54.1274C69.8773 50.6725 70.3251 47.2176 67.8175 43.7399C69.1832 44.4491 69.8325 45.5016 70.4147 46.6227C70.8177 41.6578 70.0564 37.219 65.4889 34.3361C66.6084 34.4276 67.5264 34.9081 68.6235 35.5259C68.1309 34.6107 67.6383 33.9929 67.0114 33.5124C66.6756 33.2607 66.698 33.0777 66.9666 32.7803ZM49.7263 10.4035L48.6964 8.25273L47.6664 10.4035L45.3379 10.7467L47.0171 12.4169L46.6141 14.7736L48.6964 13.6524L50.7786 14.7736L50.3756 12.4169L52.0548 10.7467L49.7263 10.4035ZM56.9809 9.25946L57.8317 11.0441L59.7797 11.3187L58.3691 12.7144L58.705 14.6821L56.9809 13.7668L55.2569 14.6821L55.5704 12.7144L54.1822 11.3187L56.1077 11.0441L56.9809 9.25946ZM41.2858 11.0441L40.4126 9.25946L39.5618 11.0441L37.6138 11.3187L39.0244 12.7144L38.6886 14.6821L40.4126 13.7668L42.159 14.6821L41.8231 12.7144L43.2113 11.3187L41.2858 11.0441ZM65.4443 11.6161L66.1384 13.0576L67.6833 13.2864L66.5638 14.4075L66.8325 15.9862L65.4443 15.2312L64.0786 15.9862L64.3248 14.4075L63.2054 13.2864L64.7503 13.0576L65.4443 11.6161ZM32.6432 13.0576L31.9491 11.6161L31.255 13.0576L29.7101 13.2864L30.8296 14.4075L30.5609 15.9862L31.9491 15.2312L33.3373 15.9862L33.0686 14.4075L34.1881 13.2864L32.6432 13.0576Z" fill="white"/>
<path d="M98.3803 19.4412C98.3803 19.1437 98.4699 19.0065 98.649 19.0065H108.68C108.859 19.0065 108.926 19.1437 108.926 19.4412C108.926 19.7386 108.836 19.8759 108.68 19.8759H106.485V33.2379C106.485 34.176 106.62 35.0226 106.911 35.7776C107.202 36.5326 107.583 37.1504 108.053 37.608C108.523 38.0656 109.06 38.4317 109.642 38.6605C110.225 38.9122 110.829 39.0266 111.456 39.0266C112.083 39.0266 112.687 38.9122 113.27 38.6605C113.852 38.4088 114.389 38.0656 114.859 37.5851C115.329 37.1275 115.71 36.5327 115.979 35.8005C116.27 35.0683 116.404 34.2446 116.404 33.3523V19.8759H114.255C114.076 19.8759 114.008 19.7386 114.008 19.4412C114.008 19.1437 114.098 19.0065 114.255 19.0065H119.427C119.606 19.0065 119.673 19.1437 119.673 19.4412C119.673 19.7386 119.583 19.8759 119.427 19.8759H117.277V33.2837C117.277 34.2675 117.121 35.1827 116.807 36.0293C116.494 36.8759 116.068 37.5851 115.531 38.18C114.994 38.7749 114.367 39.2783 113.673 39.713C112.956 40.1248 112.217 40.4452 111.411 40.6511C110.605 40.857 109.777 40.9485 108.948 40.9485C107.874 40.9485 106.866 40.7884 105.903 40.468C104.941 40.1477 104.067 39.6672 103.306 39.0495C102.522 38.4317 101.918 37.6309 101.448 36.6242C101 35.6403 100.754 34.5192 100.754 33.2837V19.8759H98.649C98.4699 19.8759 98.3803 19.7386 98.3803 19.4412Z" fill="white"/>
<path d="M125.113 40.2164C125.113 39.9189 125.203 39.7816 125.36 39.7816H127.509V19.8759H125.36C125.18 19.8759 125.113 19.7386 125.113 19.4412C125.113 19.1437 125.203 19.0065 125.36 19.0065H138.861C140.003 19.0065 141.032 19.1437 141.95 19.4412C142.868 19.7386 143.63 20.1276 144.212 20.6081C144.794 21.0885 145.242 21.6377 145.533 22.2326C145.846 22.8274 146.003 23.4681 146.003 24.1316C146.003 25.3671 145.488 26.4883 144.436 27.4492C143.383 28.4331 141.883 29.028 139.958 29.2796V29.4169C141.615 29.5084 142.891 30.1033 143.742 31.2245C144.592 32.3456 145.018 34.1074 145.018 36.4869C145.018 37.2191 145.175 37.7911 145.51 38.18C145.846 38.569 146.227 38.7749 146.675 38.7749C147.1 38.7749 147.458 38.5919 147.772 38.2029C148.085 37.8139 148.242 37.3106 148.242 36.6471C148.242 36.5327 148.287 36.464 148.376 36.3954C148.466 36.3267 148.555 36.3039 148.667 36.3039C148.958 36.3039 149.093 36.4183 149.093 36.6471C149.093 37.9055 148.6 38.9351 147.615 39.7359C146.63 40.5367 145.466 40.9485 144.145 40.9485C143.495 40.9485 142.891 40.8341 142.331 40.6053C141.771 40.3765 141.256 40.0562 140.786 39.5986C140.316 39.1639 139.958 38.5461 139.689 37.7911C139.42 37.036 139.286 36.1666 139.286 35.1599C139.286 34.4963 139.241 33.8557 139.152 33.2608C139.062 32.6659 138.905 32.0939 138.726 31.5905C138.525 31.0872 138.256 30.6753 137.92 30.355C137.584 30.0576 137.181 29.8974 136.734 29.8974H133.286V39.7588H135.435C135.614 39.7588 135.704 39.896 135.704 40.1935C135.704 40.4909 135.614 40.6511 135.435 40.6511H125.404C125.203 40.674 125.113 40.5138 125.113 40.2164ZM133.263 29.028H136.577C137.652 29.028 138.48 28.5704 139.085 27.6323C139.689 26.7171 139.98 25.6417 139.98 24.4291C139.98 23.1935 139.667 22.1182 139.062 21.2258C138.458 20.3335 137.607 19.8759 136.51 19.8759H133.241V29.028H133.263Z" fill="white"/>
<path d="M152.429 19.4412C152.429 19.1437 152.519 19.0065 152.698 19.0065H163.557C163.736 19.0065 163.803 19.1437 163.803 19.4412C163.803 19.7386 163.714 19.8759 163.557 19.8759H161.251L166.669 32.8261L171.617 19.8759H169.468C169.289 19.8759 169.199 19.7386 169.199 19.4412C169.199 19.1437 169.289 19.0065 169.468 19.0065H174.864C175.043 19.0065 175.11 19.1437 175.11 19.4412C175.11 19.7386 175.021 19.8759 174.864 19.8759H172.558L164.676 40.674C164.676 40.7197 164.587 40.7426 164.452 40.7655C164.318 40.7884 164.206 40.8112 164.161 40.8112C163.848 40.8112 163.669 40.7655 163.624 40.674L154.959 19.8759H152.698C152.519 19.8759 152.429 19.7386 152.429 19.4412Z" fill="white"/>
<path d="M177.775 19.4412C177.775 19.1437 177.864 19.0065 178.043 19.0065H188.387C188.566 19.0065 188.656 19.1437 188.656 19.4412C188.656 19.7386 188.566 19.8759 188.387 19.8759H186.842L192.485 29.0737L197.791 19.8759H195.597C195.418 19.8759 195.351 19.7386 195.351 19.4412C195.351 19.1437 195.44 19.0065 195.597 19.0065H200.993C201.172 19.0065 201.261 19.1437 201.261 19.4412C201.261 19.7386 201.172 19.8759 200.993 19.8759H198.731L192.955 29.9203V39.8045H195.104C195.283 39.8045 195.373 39.9418 195.373 40.2392C195.373 40.5367 195.283 40.6968 195.104 40.6968H184.783C184.603 40.6968 184.536 40.5367 184.536 40.2392C184.536 39.9418 184.626 39.8045 184.783 39.8045H186.932V31.0643L180.103 19.8988H178.043C177.864 19.8759 177.775 19.7386 177.775 19.4412Z" fill="white"/>
<path d="M204.351 40.3765C204.351 40.0791 204.441 39.9189 204.598 39.9189H206.322L214.516 18.8005C214.516 18.7548 214.606 18.7319 214.74 18.709C214.875 18.6861 214.986 18.6632 215.031 18.6632C215.345 18.6632 215.524 18.709 215.569 18.8005L224.032 39.9189H225.734C225.913 39.9189 225.98 40.0791 225.98 40.3765C225.98 40.6739 225.89 40.8112 225.734 40.8112H215.524C215.345 40.8112 215.255 40.6739 215.255 40.3765C215.255 40.0791 215.345 39.9189 215.524 39.9189H217.808L215.994 35.3886H209.076L207.307 39.9189H209.456C209.635 39.9189 209.725 40.0791 209.725 40.3765C209.725 40.6739 209.635 40.8112 209.456 40.8112H204.642C204.441 40.8112 204.351 40.6739 204.351 40.3765ZM209.389 34.5192H215.613L212.501 26.6942L209.389 34.5192Z" fill="white"/>
<path d="M100.619 54.5393L103.664 54.3334C103.731 54.8368 103.865 55.2257 104.067 55.5003C104.403 55.935 104.873 56.1409 105.477 56.1409C105.925 56.1409 106.284 56.0265 106.53 55.8206C106.776 55.5918 106.91 55.3401 106.91 55.0656C106.91 54.791 106.798 54.5393 106.552 54.3334C106.306 54.1275 105.769 53.9216 104.918 53.7156C103.507 53.3953 102.5 52.9606 101.917 52.4344C101.313 51.9081 101.022 51.2217 101.022 50.3751C101.022 49.826 101.179 49.3226 101.492 48.8193C101.806 48.3388 102.276 47.9498 102.88 47.6753C103.507 47.4007 104.358 47.2634 105.433 47.2634C106.754 47.2634 107.761 47.5151 108.478 48.0185C109.172 48.5218 109.597 49.3226 109.732 50.4209L106.709 50.6039C106.619 50.1235 106.463 49.7803 106.194 49.5515C105.948 49.3455 105.589 49.2311 105.119 49.2311C104.739 49.2311 104.47 49.3227 104.268 49.4828C104.089 49.643 103.977 49.8489 103.977 50.0777C103.977 50.2379 104.045 50.398 104.201 50.5353C104.358 50.6726 104.716 50.8099 105.276 50.9243C106.687 51.2217 107.694 51.542 108.299 51.8624C108.903 52.1827 109.351 52.5716 109.62 53.0292C109.888 53.4868 110.045 54.0131 110.045 54.608C110.045 55.2944 109.866 55.9121 109.485 56.4841C109.105 57.0561 108.612 57.4909 107.94 57.7883C107.269 58.0857 106.44 58.223 105.433 58.223C103.664 58.223 102.455 57.8798 101.761 57.1705C101.089 56.507 100.708 55.6147 100.619 54.5393Z" fill="white"/>
<path d="M117.434 47.4464H126.032V49.7116H120.658V51.4047H125.651V53.5783H120.658V55.6604H126.188V58.0628H117.434V47.4464Z" fill="white"/>
<path d="M140.651 53.7156L143.473 54.5851C143.294 55.3859 142.98 56.0723 142.577 56.5985C142.174 57.1476 141.659 57.5366 141.055 57.8112C140.45 58.0857 139.689 58.223 138.748 58.223C137.629 58.223 136.688 58.0628 135.972 57.7196C135.256 57.3764 134.629 56.8044 134.114 55.9579C133.599 55.1113 133.33 54.0359 133.33 52.7089C133.33 50.9471 133.778 49.5972 134.696 48.6591C135.614 47.721 136.912 47.2405 138.569 47.2405C139.868 47.2405 140.898 47.5151 141.659 48.0413C142.398 48.5905 142.958 49.4141 143.316 50.5353L140.517 51.1988C140.428 50.8785 140.316 50.6497 140.204 50.4895C140.025 50.2378 139.801 50.0548 139.554 49.9175C139.286 49.7802 138.995 49.7116 138.681 49.7116C137.965 49.7116 137.405 50.009 137.002 50.6039C136.711 51.0386 136.554 51.7479 136.554 52.686C136.554 53.8529 136.733 54.6766 137.069 55.1113C137.427 55.546 137.92 55.7748 138.547 55.7748C139.151 55.7748 139.622 55.5918 139.935 55.2486C140.271 54.9054 140.495 54.3791 140.651 53.7156Z" fill="white"/>
<path d="M157.579 47.4464H160.781V53.7614C160.781 54.3791 160.691 54.974 160.49 55.546C160.288 56.0951 159.997 56.5985 159.594 57.0103C159.191 57.4222 158.766 57.7196 158.318 57.8798C157.691 58.1086 156.952 58.223 156.079 58.223C155.564 58.223 155.026 58.1772 154.422 58.1086C153.817 58.04 153.325 57.9027 152.922 57.6739C152.519 57.4679 152.161 57.1476 151.825 56.7587C151.489 56.3697 151.265 55.9579 151.131 55.546C150.929 54.8596 150.84 54.2647 150.84 53.7614V47.4464H154.041V53.9215C154.041 54.4935 154.198 54.9511 154.512 55.2714C154.825 55.5918 155.25 55.7519 155.81 55.7519C156.37 55.7519 156.795 55.5918 157.109 55.2714C157.422 54.9511 157.579 54.4935 157.579 53.8986V47.4464V47.4464Z" fill="white"/>
<path d="M168.751 58.0628V47.4464H174.103C175.088 47.4464 175.849 47.538 176.386 47.6981C176.901 47.8812 177.327 48.2015 177.663 48.6591C177.976 49.1396 178.155 49.7116 178.155 50.3751C178.155 50.97 178.043 51.4733 177.797 51.9081C177.551 52.3428 177.215 52.686 176.789 52.9377C176.521 53.0978 176.14 53.2351 175.67 53.3495C176.051 53.4868 176.342 53.6012 176.498 53.7385C176.61 53.83 176.789 54.013 177.013 54.2876C177.237 54.5622 177.394 54.791 177.461 54.9511L179.006 58.0171H175.379L173.655 54.7681C173.431 54.3562 173.252 54.0817 173.073 53.9444C172.849 53.7842 172.58 53.6927 172.289 53.6927H171.998V58.0628H168.751ZM171.976 51.7479H173.319C173.476 51.7479 173.744 51.7021 174.17 51.6106C174.371 51.5649 174.55 51.4505 174.685 51.2674C174.819 51.0844 174.886 50.8785 174.886 50.6497C174.886 50.3065 174.774 50.0548 174.573 49.8717C174.371 49.6887 173.968 49.5972 173.386 49.5972H171.976V51.7479Z" fill="white"/>
<path d="M185.902 47.4464H189.126V58.0628H185.902V47.4464Z" fill="white"/>
<path d="M196.492 47.4464H206.254V50.0548H202.986V58.0628H199.784V50.0548H196.492V47.4464Z" fill="white"/>
<path d="M212.456 47.4464H216.016L218.099 51.0157L220.203 47.4464H223.741L219.711 53.6241V58.0628H216.487V53.6241L212.456 47.4464Z" fill="white"/>
</svg>
